<svg width="194" height="56" viewBox="0 0 194 56" fill="none" xmlns="http://www.w3.org/2000/svg">
<g clip-path="url(#clip0_6500_672)">
<path d="M77.7123 28.3945C76.979 28.0965 75.9664 29.4286 75.4601 29.8668C74.3776 30.7957 73.2776 31.7071 72.1253 32.5309C71.2493 33.264 70.2244 33.7964 69.1223 34.0909C67.7779 34.2837 68.162 33.3021 68.1096 32.3381C68.0572 31.3741 66.7303 30.3751 65.8748 30.0245C65.0193 29.674 64.2511 30.971 63.7273 31.7772C63.413 32.233 62.2432 34.3187 61.5972 34.0733C60.9512 33.8279 60.9163 31.8298 60.8989 31.2514C60.8276 30.7388 60.8973 30.2164 61.1004 29.7406C61.3035 29.2649 61.6322 28.854 62.0511 28.5522C62.521 28.3387 63.0284 28.2209 63.5439 28.2059C64.0594 28.1908 64.5728 28.2788 65.0542 28.4645C65.543 28.6048 67.5334 29.6213 67.1842 28.4645C66.9049 27.5531 65.3336 27.2026 64.5479 26.9572C63.3661 26.5707 62.1213 26.4159 60.8814 26.5015C60.4144 26.5268 59.9572 26.646 59.537 26.8521C58.891 27.15 58.6815 27.6583 58.1926 28.0789C57.7037 28.4996 58.2973 28.0789 57.9132 28.2542C57.5291 28.4295 57.5815 28.1666 57.372 28.2542C57.1625 28.3419 56.8831 28.7801 56.7085 28.9904C55.9228 29.9895 55.1372 30.9885 54.2642 31.9174C53.4672 32.8409 52.516 33.6179 51.4532 34.2135C50.6326 34.6342 49.2882 35.2301 48.4851 34.494C47.3852 33.4774 47.2804 30.9885 47.0709 29.6915C46.9264 29.1173 46.8387 28.5302 46.809 27.9387C47.0241 27.1192 47.3658 26.3385 47.8216 25.6251C48.7495 23.1943 49.2516 20.6208 49.3057 18.0182C49.4593 15.5226 49.2416 13.0179 48.6597 10.5866C48.2058 8.74626 47.3502 6.04701 45.0456 6.06454C42.7409 6.08207 42.2695 8.95655 42.1299 10.7093C42.0517 13.2173 42.1919 15.7274 42.5489 18.211C42.8282 21.0855 43.0552 23.96 43.4044 26.8345C43.5615 28.2718 43.771 29.709 44.0155 31.1462C44.1511 32.3621 44.4875 33.5467 45.0107 34.6517C46.3551 37.1055 49.2882 36.9828 51.5405 35.9137C53.9463 34.6459 56.0354 32.8483 57.6514 30.6555C57.6514 32.4082 58.0704 35.9137 60.1655 36.5797C62.6273 37.3685 64.1637 33.7929 65.543 32.4257C65.4151 33.1338 65.5281 33.8644 65.8637 34.5002C66.1994 35.136 66.7383 35.64 67.3937 35.9312C68.2279 36.0963 69.0881 36.0734 69.9124 35.8643C70.7367 35.6552 71.5044 35.265 72.1602 34.7218C73.7272 33.7441 75.2053 32.6297 76.5775 31.3916C77.2235 30.8483 79.5281 29.2183 77.7123 28.4996C77.5203 28.3068 77.9218 28.5347 77.7123 28.3945ZM46.4074 24.3281C46.2677 22.9259 46.1106 21.5062 45.9709 20.0864C45.4456 16.776 45.1713 13.4304 45.1503 10.0783C45.1503 9.49992 45.1503 8.55345 45.6567 8.16785C46.163 7.78224 46.7043 8.25547 46.9312 8.81635C47.4684 10.2992 47.7403 11.8657 47.7344 13.4436C48.059 17.1251 47.6069 20.8339 46.4074 24.3281Z" fill="#D3A562"/>
<path d="M24.164 28.1314C24.0802 28.0884 23.9875 28.0659 23.8933 28.0659C23.7992 28.0659 23.7065 28.0884 23.6227 28.1314C23.3135 28.3413 23.0216 28.5758 22.7497 28.8326C22.3656 29.1831 21.9117 29.5687 21.3879 30.0069C20.8641 30.4451 20.3229 30.9008 19.7292 31.374C19.1356 31.8472 18.5594 32.2504 17.9833 32.636C17.4723 32.9813 16.9353 33.286 16.377 33.5474C15.9916 33.7377 15.5668 33.8338 15.1374 33.8278C14.7882 33.8278 14.5786 33.6876 14.5263 33.5124C14.481 33.2986 14.481 33.0776 14.5263 32.8638C14.5263 32.6185 14.5263 32.3731 14.5263 32.0926C14.5386 31.9596 14.5232 31.8255 14.4811 31.6988C14.4391 31.5721 14.3712 31.4555 14.2819 31.3565C14.0852 31.1169 13.8691 30.8942 13.6359 30.6905L13.5136 30.6028C13.4275 30.3952 13.282 30.2178 13.0956 30.093C12.9092 29.9683 12.6901 29.9017 12.4661 29.9017C12.242 29.9017 12.023 29.9683 11.8366 30.093C11.6502 30.2178 11.5046 30.3952 11.4185 30.6028C10.6677 31.7947 9.58523 33.6526 8.31068 34.0031C4.39974 35.0372 2.91569 29.9017 2.91569 26.2035C2.91569 24.1177 4.80134 9.13177 8.65989 13.093C9.74238 14.2147 9.65506 19.1574 9.7249 20.77C9.99066 23.1687 9.83108 25.5958 9.25351 27.9387C8.53767 29.9894 11.2439 29.9017 11.8375 28.2366C13.2867 24.0826 12.6756 16.9665 11.5582 12.7775C10.0043 6.92333 5.41239 9.46476 3.17757 13.3383C0.244372 18.4563 -1.79837 29.744 2.2697 34.7393C5.55209 38.7531 9.42809 37.2106 12.1867 33.898C12.3565 34.3492 12.625 34.7565 12.9724 35.0898C13.4643 35.5032 14.0776 35.7433 14.7184 35.7734C15.3162 35.8263 15.9175 35.7237 16.4643 35.4754C17.1449 35.1714 17.8092 34.8321 18.4547 34.4588C19.1608 34.0359 19.8428 33.5736 20.4975 33.0742C21.1784 32.5483 21.7895 32.0751 22.3656 31.6019C22.9418 31.1286 23.3957 30.708 23.7799 30.3574C24.024 30.1031 24.2931 29.874 24.583 29.6738C24.7433 29.5164 24.8371 29.303 24.8449 29.0779C24.8362 28.868 24.763 28.666 24.6354 28.4995C24.5171 28.3335 24.3533 28.2056 24.164 28.1314Z" fill="#D3A562"/>
<path d="M13.0598 5.99429C14.5788 3.78584 17.0231 1.66501 19.45 1.87534C20.0436 1.87534 20.0436 1.47221 19.7468 0.998974C19.52 0.718719 19.2392 0.487305 18.9212 0.318643C18.6032 0.149981 18.2545 0.0475484 17.8961 0.0174445C14.9978 -0.245466 12.2741 1.9279 10.4409 4.59207C10.0218 5.11789 12.4662 6.85313 13.0598 5.99429Z" fill="#D3A562"/>
<path d="M193.609 29.5336C193.067 28.7975 192.631 29.2707 192.142 29.7264C191.653 30.1821 190.78 30.9008 190.064 31.4792C188.427 32.7475 186.673 33.8568 184.827 34.7919C181.789 36.2642 176.586 37.088 176.097 32.4432C177.459 33.5474 180.305 34.6516 181.684 32.9515C183.063 31.2513 180.671 28.8851 179.274 28.1665C178.272 27.6387 177.122 27.4658 176.01 27.6757C175.011 27.892 174.131 28.4809 173.548 29.3233C172.191 30.7376 170.687 32.001 169.061 33.0917C167.489 34.3011 165.324 36.1239 163.177 35.861C161.029 35.5981 160.61 32.969 160.313 31.3214L160.104 29.8491C159.999 29.0779 159.894 28.8501 160.279 28.0964C160.833 27.1441 161.295 26.1404 161.658 25.0992C161.763 24.7837 161.885 23.6619 162.129 23.4691C162.374 23.2763 163.701 23.4691 164.137 23.4691H168.013C168.31 23.4691 169.096 23.5918 169.34 23.3815C169.584 23.1712 169.34 22.4175 168.904 22.2072C167.992 21.9034 167.017 21.843 166.075 22.0319C164.835 22.0319 163.613 22.0319 162.391 22.1195C162.886 19.3303 162.821 16.4699 162.199 13.7064C161.658 11.5155 160.453 9.13174 157.764 9.62251C155.774 9.99059 155.547 12.497 155.46 14.1446C155.413 16.8816 155.577 19.6181 155.949 22.3299C154.517 22.3299 153.103 22.3299 151.671 22.3299C150.239 22.3299 151.06 23.5393 152.142 23.5568C152.701 23.5568 153.242 23.5568 153.784 23.5568H155.337C155.687 23.5568 155.896 23.4691 156.053 23.7496C156.148 24.1155 156.19 24.4935 156.176 24.8714L156.333 26.1684L156.49 27.2726C156.629 27.7149 156.699 28.176 156.699 28.6397C156.612 28.9552 156.001 29.5161 155.791 29.7615C155.244 30.3797 154.661 30.965 154.045 31.5142C153.007 32.5618 151.832 33.4638 150.554 34.1959C148.808 35.195 146.206 35.9487 144.39 34.6341C144.041 34.3887 143.203 33.7577 143.116 33.2845C143.029 32.8112 143.36 32.8989 143.657 32.6009C145.56 30.8482 144.443 28.5696 142.313 27.553C139.903 26.3962 137.686 27.7984 135.922 29.3058C134.77 30.3399 133.583 31.3214 132.343 32.2328C131.418 32.8813 129.969 33.9856 128.851 33.9856C128.118 33.8979 128.188 33.4072 128.223 32.7762C128.295 32.4559 128.276 32.1218 128.167 31.8119C128.059 31.502 127.867 31.2289 127.612 31.0235C127.124 30.5028 126.528 30.096 125.866 29.8316C125.29 29.6563 125.045 29.9193 124.713 30.3574C124.382 30.7956 123.858 31.5493 123.439 32.1102C123.02 32.6711 122.426 33.8629 121.92 33.8629C121.064 33.8629 121.012 31.3214 121.029 30.7255C120.97 30.086 121.161 29.4484 121.562 28.9478C121.963 28.4473 122.542 28.123 123.177 28.0438C123.71 27.9885 124.248 28.03 124.766 28.1665C125.439 28.4464 126.134 28.6692 126.844 28.8326C127.559 28.8326 127.385 28.2191 127.036 27.8159C126.575 27.4109 126.024 27.1225 125.429 26.9746C124.022 26.41 122.508 26.1589 120.995 26.2385C120.37 26.3024 119.77 26.519 119.249 26.8694C118.822 27.2556 118.457 27.7048 118.166 28.2015C117.302 29.1184 116.328 29.9249 115.268 30.6028C112.962 32.5355 110.244 33.9089 107.324 34.6166C106.158 34.9172 104.925 34.8058 103.832 34.3011C103.298 33.8968 102.876 33.363 102.604 32.7498C102.332 32.1366 102.22 31.4642 102.278 30.7956C102.278 29.6739 102.4 28.3242 103.587 27.851C104.775 27.3777 106.014 28.4294 107.306 28.5521C108.022 28.5521 108.127 27.9387 107.656 27.4654C107.055 27.0315 106.371 26.7271 105.648 26.5715C104.429 26.1072 103.121 25.9332 101.824 26.0632C98.8209 26.4839 98.4194 30.0419 99.0829 32.4607C99.9035 35.4579 102.959 36.492 105.752 36.4394C108.872 36.2599 111.887 35.243 114.482 33.4948C115.697 32.7134 116.863 31.8588 117.974 30.9358C118.131 32.6886 118.568 36.1064 120.803 36.4044C123.037 36.7023 124.434 33.5299 125.848 32.1802C125.733 32.7433 125.775 33.3274 125.968 33.8685C126.161 34.4097 126.498 34.8873 126.943 35.249C127.388 35.6107 127.924 35.8427 128.491 35.9197C129.058 35.9968 129.636 35.9158 130.161 35.6857C132.659 34.5863 134.946 33.0558 136.918 31.1637C137.092 33.0917 137.127 36.79 139.816 36.9302C141.37 37.0178 139.816 35.1775 140.218 34.6867C140.436 34.5561 140.671 34.4559 140.916 34.3887C141.265 34.2485 141.51 34.0382 141.771 34.1784C142.033 34.3186 142.522 35.2125 142.784 35.528C143.121 35.9911 143.552 36.3773 144.049 36.6613C144.545 36.9452 145.096 37.1205 145.665 37.1756C147.017 37.283 148.375 37.0667 149.628 36.5446C152.621 35.3095 155.248 33.324 157.258 30.7781C157.118 30.8832 157.572 32.1102 157.625 32.2679C157.906 33.0755 158.294 33.8417 158.777 34.5465C159.238 35.2995 159.757 36.0145 160.331 36.6848C160.641 36.9842 161.008 37.2177 161.41 37.3713C161.812 37.5249 162.241 37.5955 162.67 37.5787C166.599 37.7189 170.51 34.6166 173.268 32.1102C173.722 37.5962 179.467 38.2973 183.744 36.9652C186.128 36.201 188.37 35.0461 190.379 33.5474C191.234 32.9164 192.125 32.2504 192.893 31.5668C193.661 30.8833 194.394 30.3925 193.731 29.4811C193.487 29.3408 193.748 29.7089 193.609 29.5336ZM176.83 29.4285C178.471 27.9737 181.893 30.9008 180.322 32.0926C179.83 32.322 179.29 32.4275 178.749 32.4C178.207 32.3725 177.68 32.2128 177.214 31.9349C176.959 31.8263 176.718 31.6849 176.498 31.5142C176.167 31.1988 176.219 31.1637 176.306 30.6905C176.358 30.215 176.567 29.7707 176.9 29.4285H176.83ZM143.255 30.7255C142.854 32.1452 140.567 32.8463 139.414 33.4247C139.04 32.2864 139.04 31.0575 139.414 29.9193C140.113 28.0789 143.867 28.5346 143.255 30.7255ZM159.214 21.1205C159.039 19.0698 158.725 17.0191 158.637 14.9509C158.637 14.3374 158.725 10.2886 160.279 11.7959C160.726 12.4802 160.98 13.274 161.012 14.092C161.137 15.0627 161.201 16.0403 161.204 17.0191C161.21 18.1321 161.145 19.2443 161.012 20.3493C160.997 20.8591 160.921 21.3653 160.785 21.8566C160.628 22.2072 160.785 22.1196 160.348 22.2072C159.912 22.2949 159.615 22.2072 159.283 22.2072L159.214 21.1205ZM159.458 23.5393H160.383C160.178 24.2556 159.927 24.9581 159.633 25.6426L159.458 23.5393Z" fill="#D3A562"/>
<path d="M31.916 53.073H30.9732L31.0954 52.9678V55.5619V55.4392L32.3874 55.6145V55.9124H29.5764V55.6145L30.6414 55.4392L30.5367 55.5619V49.1293L30.6414 49.252L29.5764 49.1293V48.8313H31.043H32.3175C32.7516 48.8157 33.1829 48.906 33.5746 49.0943C33.8891 49.2473 34.1507 49.4915 34.3254 49.7953C34.4917 50.1267 34.5756 50.4935 34.5698 50.8645C34.5754 51.2865 34.4732 51.7028 34.273 52.0739C34.0566 52.4186 33.7396 52.6879 33.3651 52.8451C32.9057 53.031 32.41 53.109 31.916 53.073ZM32.2477 49.1819H30.9732L31.0779 49.0767V52.775L30.9557 52.6874H31.9858C32.5539 52.7169 33.1131 52.536 33.5572 52.179C33.7384 52.0061 33.8805 51.7961 33.9739 51.5633C34.0672 51.3304 34.1097 51.0802 34.0984 50.8295C34.1121 50.6071 34.0787 50.3844 34.0005 50.1759C33.9223 49.9675 33.8009 49.778 33.6445 49.6201C33.2547 49.2947 32.7527 49.1372 32.2477 49.1819Z" fill="#322E29"/>
<path d="M35.9143 55.9123V55.6144L36.8746 55.4566L36.7873 55.5618V50.8995L36.8746 51.0047L35.9143 50.8469V50.5665H37.1714V51.5831C37.4323 51.2919 37.7319 51.0383 38.0618 50.8294C38.3497 50.6501 38.6834 50.5587 39.0221 50.5665C39.2529 50.5684 39.4823 50.6038 39.703 50.6717V51.9511H39.3713L39.2666 50.882V51.0222H39.092H38.9173C38.6075 51.0253 38.3048 51.1165 38.0444 51.2851C37.7351 51.4801 37.4582 51.7226 37.2238 52.0038V51.8285V55.702L37.119 55.5968L38.2714 55.7546V56.0526L35.9143 55.9123Z" fill="#322E29"/>
<path d="M43.0029 55.9825C42.5965 55.9908 42.1964 55.8812 41.8506 55.667C41.4934 55.4562 41.2122 55.1371 41.0474 54.7555C40.8478 54.2974 40.7523 53.8005 40.768 53.3008C40.7581 52.7828 40.8593 52.2686 41.0649 51.7934C41.2392 51.3941 41.524 51.0535 41.8855 50.8118C42.2586 50.568 42.6976 50.4456 43.1425 50.4613C43.537 50.4395 43.9282 50.5438 44.2599 50.7593C44.5641 50.9513 44.802 51.2329 44.9409 51.5656C45.1011 51.948 45.1784 52.3602 45.1679 52.7749V52.9327C45.1585 53.0084 45.1585 53.0848 45.1679 53.1605H41.0998V52.7749H44.7488H44.6615C44.6689 52.4365 44.6218 52.0992 44.5219 51.7759C44.4389 51.4904 44.2677 51.2387 44.033 51.0573C43.7691 50.8533 43.4399 50.7536 43.1076 50.7768C42.7535 50.7725 42.4064 50.8764 42.1124 51.0747C41.839 51.3008 41.6234 51.5893 41.4839 51.9161C41.3365 52.3139 41.2654 52.7361 41.2744 53.1605C41.2606 53.5925 41.338 54.0226 41.5013 54.4225C41.631 54.7504 41.8561 55.0314 42.1473 55.2288C42.4295 55.4225 42.766 55.5207 43.1076 55.5092C43.411 55.5052 43.7117 55.4519 43.998 55.3514C44.3416 55.231 44.6653 55.0597 44.9584 54.8432L45.1504 55.1411C44.8145 55.3879 44.4438 55.5829 44.0504 55.7196C43.7178 55.8637 43.364 55.9525 43.0029 55.9825Z" fill="#322E29"/>
<path d="M51.5405 51.5129C51.8422 51.1843 52.2037 50.9166 52.6056 50.7242C52.937 50.559 53.3006 50.4692 53.6706 50.4613C53.8582 50.4528 54.0454 50.4843 54.22 50.5538C54.3946 50.6233 54.5524 50.7291 54.6832 50.8644C54.8343 51.0319 54.9496 51.2288 55.0216 51.4429C55.0937 51.657 55.1212 51.8837 55.1023 52.1089V55.6144V55.4917L56.045 55.667V55.9649H53.6706V55.667L54.5959 55.5092L54.5086 55.6144V52.2841C54.5393 51.9064 54.4271 51.531 54.1943 51.2325C54.0927 51.1265 53.9706 51.0423 53.8356 50.9851C53.7005 50.9278 53.5553 50.8987 53.4087 50.8995C53.0837 50.9113 52.7663 51.0015 52.4833 51.1624C52.1062 51.3468 51.7683 51.6027 51.4881 51.9161V51.7759C51.4968 51.8399 51.4968 51.9047 51.4881 51.9687C51.4977 52.0326 51.4977 52.0976 51.4881 52.1615V55.667L51.3834 55.5443L52.3262 55.7196V56.0175H50.1438V55.7196L51.0865 55.5618V55.667V52.3367C51.1172 51.959 51.005 51.5835 50.7723 51.2851C50.6706 51.1791 50.5485 51.0949 50.4135 51.0376C50.2784 50.9804 50.1332 50.9513 49.9866 50.9521C49.6588 50.9671 49.3376 51.0507 49.0438 51.1975C48.6755 51.3803 48.344 51.6299 48.0661 51.9336V51.7934V55.667V55.5618L48.9914 55.7196V56.0175H46.7915V55.7196L47.7518 55.5443L47.6645 55.667V51.0047L47.7518 51.1098L46.7915 50.9521V50.6717H48.0486V51.6882C48.3482 51.3618 48.7105 51.0994 49.1137 50.917C49.44 50.757 49.798 50.6732 50.1612 50.6717C50.4672 50.664 50.7674 50.7563 51.0167 50.9346C51.243 51.0729 51.4249 51.2736 51.5405 51.5129Z" fill="#322E29"/>
<path d="M58.5067 55.5443V55.4566L59.4495 55.6144V55.9123H57.1624V55.6144L58.1052 55.4566V55.5443V50.917V51.0047L57.1624 50.8469V50.5665H58.5242L58.5067 55.5443ZM58.175 49.2344C58.1225 49.2342 58.0707 49.2232 58.0227 49.2021C57.9747 49.181 57.9314 49.1502 57.8957 49.1117C57.8235 49.0298 57.7859 48.923 57.7909 48.8138C57.7847 48.754 57.7908 48.6936 57.8088 48.6363C57.8268 48.579 57.8564 48.5261 57.8957 48.4807C57.9764 48.4049 58.0819 48.3613 58.1925 48.358C58.2449 48.3583 58.2967 48.3692 58.3448 48.3903C58.3928 48.4114 58.4361 48.4422 58.4718 48.4807C58.5111 48.5261 58.5406 48.579 58.5587 48.6363C58.5767 48.6936 58.5828 48.754 58.5766 48.8138C58.5815 48.923 58.544 49.0298 58.4718 49.1117C58.4341 49.1524 58.388 49.1845 58.3368 49.2057C58.2856 49.2269 58.2303 49.2367 58.175 49.2344Z" fill="#322E29"/>
<path d="M62.8544 55.9825C62.6521 55.9914 62.4502 55.9587 62.2611 55.8863C62.0719 55.814 61.8995 55.7036 61.7544 55.5618C61.5951 55.3957 61.4736 55.1968 61.3982 54.9789C61.3228 54.7611 61.2954 54.5294 61.3179 54.2999V50.8996L61.4052 51.0047L60.4624 50.847V50.5665H61.8068V54.2823C61.7898 54.4682 61.8104 54.6557 61.8674 54.8334C61.9244 55.0111 62.0166 55.1754 62.1385 55.3164C62.2522 55.4309 62.3888 55.5198 62.5393 55.5773C62.6898 55.6347 62.8508 55.6593 63.0115 55.6495C63.334 55.6363 63.6499 55.5525 63.9368 55.4041C64.3118 55.2238 64.6495 54.9741 64.932 54.6679V54.8257V50.9521L65.0193 51.0748L64.0591 50.917V50.6366H65.4209V55.6845H65.3162L66.2764 55.8072V56.0876H65.0368L64.9495 55.0711H65.0368C64.7351 55.3997 64.3736 55.6674 63.9717 55.8598C63.6112 55.9753 63.2312 56.0171 62.8544 55.9825Z" fill="#322E29"/>
<path d="M72.2824 51.513C72.5866 51.1871 72.9475 50.9199 73.3474 50.7243C73.6794 50.5607 74.0428 50.471 74.4125 50.4614C74.6027 50.4526 74.7927 50.4839 74.9701 50.5533C75.1476 50.6228 75.3085 50.7288 75.4426 50.8645C75.5937 51.032 75.7089 51.2289 75.781 51.443C75.8531 51.6571 75.8805 51.8838 75.8616 52.109V55.6145L75.7743 55.4918L76.7172 55.6671V55.965H74.4474V55.6671L75.3902 55.5093L75.303 55.6145V52.2842C75.3336 51.9065 75.2214 51.5311 74.9886 51.2326C74.887 51.1266 74.7649 51.0424 74.6298 50.9851C74.4948 50.9279 74.3496 50.8988 74.203 50.8996C73.878 50.9114 73.5606 51.0016 73.2776 51.1625C72.9005 51.3469 72.5626 51.6028 72.2824 51.9162V51.776C72.2911 51.84 72.2911 51.9048 72.2824 51.9688C72.2824 51.9688 72.2824 52.0915 72.2824 52.1616V55.6671L72.1777 55.5444L73.103 55.7196V56.0176H70.9381V55.7196L71.8808 55.5619L71.7761 55.6671V52.3368C71.8036 51.9621 71.6985 51.5897 71.4793 51.2852C71.375 51.1779 71.25 51.0929 71.1119 51.0357C70.9738 50.9784 70.8255 50.95 70.6761 50.9522C70.3539 50.9676 70.0385 51.0512 69.7508 51.1975C69.3796 51.384 69.043 51.633 68.7556 51.9337V51.7935V55.6671L68.6683 55.5619L69.5936 55.7196V56.0176H67.6382V55.7196L68.5984 55.5444L68.5112 55.6671V51.0048L68.5984 51.1099L67.6382 50.9522V50.6717H68.8953V51.6883C69.1915 51.358 69.5546 51.0951 69.9603 50.9171C70.2866 50.7571 70.6447 50.6732 71.0079 50.6717C71.3134 50.6678 71.6125 50.7597 71.8634 50.9346C72.055 51.0835 72.2004 51.2842 72.2824 51.513Z" fill="#322E29"/>
<path d="M81.7978 55.9123V55.6144L83.02 55.4391L82.8978 55.5793V49.0767L83.02 49.1818H80.9074L81.0471 49.0591L80.855 50.3737H80.5408V48.7787H85.7786V50.3737H85.4469L85.2723 49.0767L85.4119 49.1818H83.3517L83.474 49.0767V55.5793L83.3517 55.4391L84.5739 55.6144V55.9123H81.7978Z" fill="#322E29"/>
<path d="M86.8438 55.9123V55.6144L87.804 55.4566V55.5618V50.8995V51.0047L86.8438 50.8469V50.5665H88.1008V51.5831C88.3617 51.2919 88.6614 51.0383 88.9913 50.8294C89.2792 50.6501 89.6128 50.5587 89.9515 50.5665C90.1824 50.5684 90.4117 50.6038 90.6325 50.6717V51.9511H90.3182L90.196 50.882V51.0222H90.0214H89.8468C89.5369 51.0253 89.2342 51.1165 88.9738 51.2851C88.6675 51.4841 88.3912 51.7261 88.1532 52.0038V51.8285V55.702L88.0485 55.5968L89.2008 55.7546V56.0526L86.8438 55.9123Z" fill="#322E29"/>
<path d="M95.4165 55.5793L95.3292 55.4566L96.2895 55.5969V55.8773H95.0499V54.8958C94.757 55.1978 94.4144 55.4469 94.0372 55.6319C93.7189 55.7989 93.3662 55.889 93.0071 55.8948C92.8278 55.903 92.6487 55.8747 92.4807 55.8114C92.3126 55.7482 92.1591 55.6513 92.0294 55.5268C91.8913 55.3768 91.7859 55.1996 91.7198 55.0065C91.6537 54.8134 91.6283 54.6085 91.6452 54.405C91.6261 54.0772 91.7118 53.7517 91.8897 53.4761C92.065 53.2652 92.3041 53.1175 92.5706 53.0554C92.8903 52.9745 93.2187 52.9334 93.5483 52.9327H95.0324H94.9451V51.811C94.9625 51.649 94.9415 51.4852 94.8839 51.3329C94.8262 51.1806 94.7335 51.0441 94.6134 50.9346C94.3491 50.7463 94.029 50.6537 93.7055 50.6717C93.4908 50.6468 93.2741 50.6468 93.0595 50.6717L92.3087 50.882L92.4135 50.7593V51.7234H92.0468V50.584C92.3728 50.4709 92.705 50.3773 93.042 50.3036C93.3419 50.2509 93.6455 50.2216 93.9499 50.216C94.372 50.1875 94.7909 50.305 95.1372 50.549C95.2923 50.6848 95.4128 50.8559 95.4887 51.048C95.5646 51.2401 95.5938 51.4476 95.5736 51.6532L95.4165 55.5793ZM92.1341 54.4401C92.1188 54.5949 92.1358 54.7511 92.1839 54.899C92.232 55.0468 92.3101 55.183 92.4135 55.2989C92.5058 55.3944 92.6175 55.4689 92.741 55.5172C92.8645 55.5656 92.997 55.5868 93.1293 55.5793C93.4472 55.5722 93.7587 55.488 94.0372 55.334C94.3815 55.1582 94.699 54.9339 94.98 54.6679V54.8257V53.3008H95.0673H93.6531C93.259 53.2697 92.8646 53.355 92.5182 53.5462C92.3699 53.6398 92.2505 53.773 92.1734 53.9309C92.0963 54.0887 92.0646 54.2651 92.0817 54.4401H92.1341Z" fill="#322E29"/>
<path d="M100.165 50.5665H102.191V50.847L101.423 51.0222L101.545 50.917L99.7988 56H99.2226L97.4767 50.917L97.5989 51.0222L96.8481 50.917V50.6366H98.9607V50.917L97.9306 51.0748L99.4845 55.8422L101.126 51.0748H100.148L100.165 50.5665Z" fill="#322E29"/>
<path d="M105.333 55.9825C104.927 55.9908 104.527 55.8812 104.181 55.667C103.824 55.4562 103.543 55.1371 103.378 54.7555C102.994 53.8056 102.994 52.7432 103.378 51.7934C103.547 51.3908 103.833 51.0488 104.198 50.8118C104.571 50.5659 105.01 50.4433 105.456 50.4613C105.85 50.4395 106.241 50.5438 106.573 50.7593C106.877 50.9513 107.115 51.2329 107.254 51.5656C107.414 51.948 107.491 52.3602 107.481 52.7749V52.9327C107.472 53.0084 107.472 53.0848 107.481 53.1605H103.43V52.7749H107.079C107.078 52.4371 107.031 52.101 106.94 51.7759C106.857 51.4904 106.686 51.2387 106.451 51.0573C106.187 50.8533 105.858 50.7536 105.525 50.7768C105.171 50.7725 104.824 50.8764 104.53 51.0747C104.251 51.2956 104.035 51.5856 103.902 51.9161C103.748 52.3126 103.671 52.735 103.675 53.1605C103.666 53.5938 103.749 54.024 103.919 54.4225C104.044 54.7481 104.263 55.0288 104.548 55.2288C104.839 55.4176 105.179 55.5152 105.525 55.5092C105.829 55.5052 106.129 55.4519 106.416 55.3514C106.758 55.2272 107.081 55.0562 107.376 54.8432L107.568 55.1411C107.232 55.3879 106.862 55.5829 106.468 55.7196C106.108 55.8733 105.724 55.9623 105.333 55.9825Z" fill="#322E29"/>
<path d="M110.344 55.5443V55.4566L111.287 55.6144V55.9124H109.07V55.6144L109.995 55.4566V55.5443V48.5333V48.621L109.07 48.4632V48.1653H110.414L110.344 55.5443Z" fill="#322E29"/>
<path d="M116.298 50.4964C116.286 50.7472 116.36 50.9945 116.507 51.1975C116.657 51.3848 116.849 51.5348 117.066 51.6357C117.312 51.7589 117.57 51.8587 117.834 51.9337L118.655 52.1966C118.921 52.2887 119.179 52.4061 119.423 52.5471C119.65 52.6888 119.841 52.8806 119.982 53.108C120.132 53.3745 120.205 53.6782 120.191 53.9843C120.207 54.3874 120.084 54.7837 119.842 55.1061C119.599 55.4077 119.279 55.6378 118.917 55.7722C118.52 55.917 118.1 55.9882 117.677 55.9825C117.343 55.9822 117.009 55.9469 116.682 55.8773C116.34 55.8095 116.006 55.7037 115.687 55.5618V54.0194H116.001L116.141 55.3515V55.2113C116.396 55.3329 116.666 55.4212 116.944 55.4742C117.201 55.5378 117.465 55.5673 117.73 55.5618C118.062 55.5649 118.393 55.5115 118.707 55.404C118.991 55.3014 119.24 55.1189 119.423 54.8782C119.616 54.6418 119.715 54.3423 119.702 54.0369C119.715 53.7805 119.641 53.5273 119.493 53.3183C119.343 53.126 119.152 52.9701 118.934 52.8626C118.693 52.7423 118.442 52.6426 118.184 52.5646L117.345 52.3017C117.078 52.2195 116.82 52.1078 116.577 51.9687C116.361 51.835 116.176 51.6556 116.036 51.4429C115.887 51.1822 115.814 50.8844 115.826 50.584C115.811 50.2107 115.915 49.8422 116.123 49.5324C116.344 49.2578 116.633 49.0462 116.961 48.9189C117.34 48.7738 117.743 48.7025 118.149 48.7086C118.466 48.7089 118.782 48.7442 119.091 48.8138C119.422 48.8844 119.744 48.9901 120.052 49.1293V50.6191H119.72L119.615 49.322L119.72 49.4447C119.489 49.3421 119.249 49.26 119.004 49.1994C118.743 49.1742 118.48 49.1742 118.218 49.1994C117.916 49.1919 117.614 49.2394 117.328 49.3396C117.063 49.415 116.826 49.5675 116.647 49.7778C116.447 49.9661 116.322 50.2219 116.298 50.4964Z" fill="#322E29"/>
<path d="M124.434 50.4614C124.76 50.4322 125.087 50.4805 125.391 50.6023C125.694 50.7241 125.964 50.916 126.18 51.1625C126.624 51.7155 126.842 52.4171 126.791 53.1255C126.807 53.6367 126.712 54.1452 126.512 54.6154C126.33 55.0251 126.033 55.3725 125.656 55.6145C125.261 55.869 124.799 55.9973 124.329 55.9825C124.02 55.9977 123.711 55.9442 123.424 55.8261C123.138 55.708 122.88 55.528 122.671 55.2989C122.238 54.7409 122.026 54.0414 122.077 53.3359C122.057 52.8113 122.158 52.2893 122.374 51.811C122.543 51.4037 122.828 51.0559 123.194 50.8119C123.566 50.5792 123.996 50.4576 124.434 50.4614ZM124.434 50.847C124.164 50.8327 123.896 50.8861 123.652 51.0024C123.408 51.1187 123.197 51.2942 123.037 51.513C122.697 52.0322 122.527 52.6447 122.549 53.2657C122.498 53.8872 122.665 54.507 123.02 55.0185C123.179 55.2099 123.38 55.3618 123.607 55.4621C123.834 55.5625 124.081 55.6086 124.329 55.5969C124.701 55.6122 125.068 55.5078 125.377 55.2989C125.67 55.0807 125.894 54.7826 126.023 54.4401C126.186 54.034 126.264 53.5983 126.25 53.1606C126.295 52.5396 126.129 51.9217 125.778 51.4078C125.61 51.2107 125.397 51.057 125.157 50.9594C124.917 50.8619 124.657 50.8233 124.399 50.847H124.434Z" fill="#322E29"/>
<path d="M129.567 55.5443L129.48 55.4566L130.423 55.6144V55.9124H128.205V55.6144L129.148 55.4566V55.5443V48.5333V48.621L128.205 48.4632V48.1653H129.567V55.5443Z" fill="#322E29"/>
<path d="M133.984 55.9825C133.78 55.9898 133.576 55.9563 133.384 55.8841C133.192 55.8119 133.016 55.7024 132.867 55.5618C132.568 55.2128 132.417 54.7595 132.448 54.2999V50.8996L132.535 51.0047L131.593 50.847V50.5665H132.937V54.2823C132.92 54.4682 132.941 54.6557 132.998 54.8334C133.055 55.0111 133.147 55.1754 133.269 55.3164C133.38 55.4296 133.513 55.5178 133.661 55.5752C133.808 55.6326 133.966 55.6579 134.124 55.6495C134.453 55.6388 134.775 55.555 135.067 55.4041C135.442 55.2238 135.78 54.9741 136.062 54.6679V54.8257V50.9521L136.167 51.0748L135.207 50.917V50.6366H136.551V55.6845L137.511 55.8072V56.0876H136.272L136.184 55.0711H136.272C135.965 55.4016 135.597 55.6694 135.189 55.8598C134.802 55.9927 134.39 56.0347 133.984 55.9825Z" fill="#322E29"/>
<path d="M140.357 55.9825C140.086 55.9861 139.824 55.8858 139.624 55.7021C139.432 55.4523 139.339 55.1402 139.362 54.8257V50.8119L139.449 50.8996H138.367V50.6016H139.449L139.362 50.7243V49.3922H139.851V50.7944L139.746 50.6893H141.37V51.0573H139.763L139.868 50.9697V54.8257C139.848 55.0503 139.91 55.2746 140.043 55.4567C140.107 55.5205 140.183 55.5706 140.267 55.6037C140.351 55.6369 140.441 55.6525 140.532 55.6495C140.67 55.6748 140.812 55.6748 140.951 55.6495C141.121 55.6054 141.285 55.5406 141.44 55.4567L141.562 55.7722C141.182 55.9355 140.769 56.0075 140.357 55.9825Z" fill="#322E29"/>
<path d="M144.111 55.5443L144.024 55.4566L144.967 55.6144V55.9123H142.714V55.6144L143.657 55.4566V55.5443V50.917V51.0047L142.714 50.8469V50.5665H144.076L144.111 55.5443ZM143.779 49.2344C143.727 49.2342 143.675 49.2232 143.627 49.2021C143.579 49.181 143.536 49.1502 143.5 49.1117C143.428 49.0298 143.39 48.923 143.395 48.8138C143.389 48.754 143.395 48.6936 143.413 48.6363C143.431 48.579 143.461 48.5261 143.5 48.4807C143.581 48.4049 143.686 48.3613 143.797 48.358C143.849 48.3583 143.901 48.3692 143.949 48.3903C143.997 48.4114 144.04 48.4422 144.076 48.4807C144.115 48.5261 144.145 48.579 144.163 48.6363C144.181 48.6936 144.187 48.754 144.181 48.8138C144.186 48.923 144.148 49.0298 144.076 49.1117C144.038 49.1524 143.992 49.1845 143.941 49.2057C143.89 49.2269 143.835 49.2367 143.779 49.2344Z" fill="#322E29"/>
<path d="M148.86 50.4614C149.185 50.4322 149.513 50.4805 149.816 50.6023C150.12 50.7241 150.39 50.916 150.606 51.1625C151.056 51.713 151.281 52.4148 151.234 53.1255C151.245 53.638 151.144 54.1465 150.938 54.6154C150.756 55.0251 150.458 55.3725 150.082 55.6145C149.687 55.869 149.224 55.9973 148.755 55.9825C148.448 55.9975 148.142 55.9439 147.858 55.8257C147.574 55.7075 147.32 55.5276 147.114 55.2989C146.675 54.7434 146.457 54.0437 146.503 53.3359C146.492 52.8121 146.593 52.292 146.8 51.811C146.969 51.399 147.262 51.0499 147.638 50.8119C148.003 50.5788 148.427 50.457 148.86 50.4614ZM148.86 50.847C148.593 50.8324 148.326 50.8859 148.085 51.0023C147.844 51.1187 147.636 51.2944 147.481 51.513C147.128 52.0271 146.95 52.6419 146.974 53.2657C146.924 53.8872 147.09 54.507 147.446 55.0185C147.605 55.2099 147.806 55.3618 148.033 55.4621C148.26 55.5625 148.507 55.6086 148.755 55.5969C149.127 55.6122 149.494 55.5078 149.803 55.2989C150.101 55.0824 150.332 54.7843 150.466 54.4401C150.615 54.0304 150.686 53.5964 150.676 53.1606C150.721 52.5396 150.554 51.9217 150.204 51.4078C150.036 51.2107 149.822 51.057 149.582 50.9594C149.342 50.8619 149.083 50.8233 148.825 50.847H148.86Z" fill="#322E29"/>
<path d="M152.771 55.9124V55.6145L153.731 55.4392L153.644 55.5619V50.8996L153.731 51.0048L152.771 50.847V50.5666H154.011V51.5832C154.317 51.2562 154.685 50.994 155.093 50.812C155.425 50.6499 155.789 50.5661 156.158 50.5666C156.563 50.5499 156.959 50.6948 157.258 50.9697C157.416 51.1327 157.535 51.329 157.608 51.5443C157.68 51.7596 157.704 51.9885 157.677 52.2142V55.7197L157.59 55.597L158.533 55.7722V56.0702H156.35V55.7722L157.276 55.6145V55.7197V52.3894C157.292 52.2008 157.271 52.0109 157.214 51.8304C157.157 51.6499 157.065 51.4825 156.944 51.3378C156.83 51.2281 156.696 51.1421 156.549 51.085C156.403 51.0278 156.246 51.0005 156.088 51.0048C155.76 51.0177 155.439 51.1013 155.145 51.2501C154.774 51.4366 154.438 51.6856 154.15 51.9863V51.8461V55.7197L154.063 55.6145L154.988 55.7722V56.0702L152.771 55.9124Z" fill="#322E29"/>
<path d="M160.54 51.811C160.537 51.9178 160.556 52.0241 160.595 52.1236C160.634 52.223 160.692 52.3134 160.767 52.3894C160.933 52.5408 161.13 52.6544 161.343 52.7224L162.094 52.9678C162.35 53.037 162.601 53.1248 162.845 53.2307C163.061 53.3254 163.252 53.4695 163.404 53.6513C163.566 53.8675 163.647 54.1347 163.631 54.405C163.637 54.7202 163.539 55.0285 163.351 55.2814C163.142 55.5258 162.871 55.7077 162.566 55.8072C162.224 55.9305 161.863 55.9899 161.501 55.9825C161.251 56.0005 161 56.0005 160.75 55.9825L159.999 55.8072L160.086 54.5628H160.401L160.488 55.6144V55.5268L161.029 55.6319H161.605C161.878 55.638 162.15 55.5965 162.408 55.5093C162.637 55.4444 162.842 55.3169 163.002 55.1412C163.145 54.9563 163.22 54.7268 163.212 54.4927C163.217 54.3844 163.202 54.276 163.166 54.1737C163.13 54.0714 163.074 53.9773 163.002 53.8967C162.84 53.7366 162.642 53.6166 162.426 53.5462L161.675 53.3008C161.424 53.2344 161.178 53.1465 160.942 53.0379C160.711 52.9602 160.51 52.8133 160.366 52.6172C160.215 52.4028 160.141 52.1432 160.156 51.8811C160.14 51.5972 160.227 51.3169 160.401 51.0924C160.582 50.8769 160.817 50.7137 161.082 50.6191C161.381 50.5273 161.693 50.48 162.007 50.4789H162.723C162.991 50.5304 163.254 50.6067 163.508 50.7067V51.7234H163.177L163.037 50.847L163.124 50.9696C162.775 50.8544 162.41 50.7952 162.042 50.7944C161.696 50.778 161.351 50.8567 161.047 51.0222C160.895 51.0902 160.767 51.201 160.677 51.3411C160.587 51.4811 160.539 51.6444 160.54 51.811Z" fill="#322E29"/>
</g>
<defs>
<clipPath id="clip0_6500_672">
<rect width="193.836" height="56" fill="white"/>
</clipPath>
</defs>
</svg>
