<svg width="24" height="24" viewBox="0 0 24 24" fill="none" xmlns="http://www.w3.org/2000/svg">
<g clip-path="url(#clip0_6500_711)">
<path d="M11.0109 2C15.9747 2 20.0033 6.032 20.0033 11C20.0033 15.968 15.9747 20 11.0109 20C6.04714 20 2.01855 15.968 2.01855 11C2.01855 6.032 6.04714 2 11.0109 2ZM11.0109 18C14.8747 18 18.005 14.867 18.005 11C18.005 7.132 14.8747 4 11.0109 4C7.14621 4 4.01686 7.132 4.01686 11C4.01686 14.867 7.14621 18 11.0109 18ZM19.4888 18.071L22.3154 20.899L20.9016 22.314L18.0759 19.485L19.4888 18.071Z" fill="#322E29"/>
</g>
<defs>
<clipPath id="clip0_6500_711">
<rect width="23.9797" height="24" fill="white" transform="translate(0.0202637)"/>
</clipPath>
</defs>
</svg>
