<svg width="68" height="24" viewBox="0 0 68 24" fill="none" xmlns="http://www.w3.org/2000/svg">
<path fill-rule="evenodd" clip-rule="evenodd" d="M63.9486 9.407C63.9486 8.676 64.5256 8.079 65.2186 8.079C65.9296 8.079 66.4876 8.676 66.4876 9.407C66.4876 10.137 65.9296 10.734 65.2176 10.734C64.5256 10.754 63.9476 10.157 63.9476 9.407H63.9486ZM65.2186 10.445C65.7566 10.445 66.1796 9.984 66.1796 9.426C66.1796 8.868 65.7376 8.406 65.2176 8.406C64.6796 8.406 64.2566 8.868 64.2566 9.426C64.2566 9.984 64.6786 10.446 65.2176 10.446L65.2186 10.445ZM65.0446 10.003H64.7746V8.83H65.2566C65.3526 8.83 65.4676 8.83 65.5446 8.887C65.6406 8.945 65.6796 9.06 65.6796 9.176C65.6796 9.31 65.6026 9.426 65.4876 9.464L65.6986 9.984H65.4096L65.2376 9.522H65.0446V10.003ZM65.0446 9.349H65.1986C65.2566 9.349 65.3136 9.349 65.3526 9.33C65.3906 9.31 65.4096 9.253 65.4096 9.195C65.4096 9.157 65.3906 9.099 65.3526 9.08C65.3136 9.06 65.2376 9.06 65.1986 9.06H65.0636L65.0446 9.35V9.349ZM45.7706 0.539L45.4236 2.809C44.6736 2.405 44.1156 2.251 43.5196 2.251C41.9416 2.251 40.8256 3.867 40.8256 6.156C40.8256 7.733 41.5756 8.696 42.8076 8.696C43.3276 8.696 43.9046 8.522 44.6156 8.156L44.2506 10.542C43.4616 10.772 42.9606 10.85 42.3646 10.85C40.0766 10.85 38.6526 9.118 38.6526 6.348C38.6526 2.616 40.6146 0 43.4426 0C43.8076 0 44.1346 0.039 44.4046 0.116L45.2886 0.346C45.5196 0.443 45.5786 0.462 45.7706 0.539ZM38.7106 2.097C38.6526 2.077 38.5756 2.077 38.4986 2.077C37.8066 2.077 37.4026 2.443 36.7486 3.463L36.9406 2.173H35.0166L33.7086 10.657H35.8446C36.6136 5.463 36.8056 4.578 37.8246 4.578H37.9786C38.1716 3.559 38.4216 2.808 38.7876 2.116L38.7106 2.097ZM25.9956 10.542C25.4176 10.734 24.9556 10.83 24.4756 10.83C23.3986 10.83 22.8016 10.176 22.8016 8.964C22.8016 8.734 22.8216 8.464 22.8596 8.194L22.9936 7.368L23.0906 6.694L24.0136 0.904H26.1296L25.8796 2.154H26.9766L26.6686 4.214L25.5906 4.213L25.0336 7.753C25.0136 7.906 24.9946 8.022 24.9946 8.098C24.9946 8.541 25.2256 8.733 25.7256 8.733C25.9756 8.733 26.1486 8.714 26.3026 8.656L25.9956 10.542ZM17.6076 4.848C17.6076 5.925 18.1076 6.656 19.2236 7.214C20.0706 7.637 20.2236 7.771 20.2236 8.156C20.2236 8.676 19.8396 8.926 19.0126 8.926C18.3776 8.926 17.8006 8.83 17.1086 8.58L16.8186 10.542L16.9156 10.561L17.3006 10.638C17.4356 10.658 17.6076 10.695 17.8586 10.715C18.3586 10.753 18.7626 10.792 19.0316 10.792C21.2636 10.792 22.3016 9.888 22.3016 7.964C22.3016 6.81 21.8786 6.117 20.8016 5.598C19.9166 5.175 19.8196 5.078 19.8196 4.674C19.8196 4.213 20.1666 3.982 20.8596 3.982C21.2826 3.982 21.8396 4.04 22.3796 4.117L22.6866 2.155C22.1286 2.058 21.3016 1.982 20.8206 1.982C18.4166 1.982 17.5886 3.27 17.6076 4.848ZM62.7166 10.638H60.6966L60.7936 9.811C60.2166 10.465 59.6006 10.753 58.8316 10.753C57.2736 10.753 56.2536 9.349 56.2536 7.233C56.2536 4.405 57.8316 2.02 59.7166 2.02C60.5436 2.02 61.1586 2.385 61.7556 3.174L62.2166 0.192H64.3136L62.7176 10.638H62.7166ZM59.5816 8.656C60.5816 8.656 61.2746 7.483 61.2746 5.79C61.2746 4.713 60.8706 4.117 60.1396 4.117C59.1776 4.117 58.4856 5.31 58.4856 6.964C58.4856 8.079 58.8506 8.656 59.5816 8.656ZM32.7276 10.465C31.9976 10.695 31.3046 10.811 30.5346 10.811C28.1686 10.811 26.9186 9.503 26.9186 7.002C26.9186 4.079 28.4956 1.943 30.6306 1.943C32.3806 1.943 33.4976 3.155 33.4976 5.04C33.4976 5.656 33.4206 6.271 33.2276 7.137H28.9956C28.9766 7.272 28.9766 7.329 28.9766 7.407C28.9766 8.407 29.6116 8.907 30.8426 8.907C31.5926 8.907 32.2856 8.733 33.0546 8.368L32.7276 10.465ZM31.5356 5.405C31.5546 5.232 31.5546 5.079 31.5546 4.982C31.5546 4.29 31.1886 3.886 30.5546 3.886C29.8806 3.886 29.3996 4.425 29.2076 5.406H31.5356V5.405ZM9.0676 10.638H6.9516L8.1636 2.616L5.4316 10.638H3.9886L3.8156 2.674L2.5266 10.638H0.545602L2.1996 0.212H5.2586L5.3356 6.675L7.4126 0.212H10.7216L9.0676 10.638ZM14.5496 6.867C14.3196 6.848 14.2226 6.829 14.0696 6.829C12.8566 6.829 12.2596 7.272 12.2596 8.118C12.2596 8.638 12.5686 8.983 13.0296 8.983C13.8766 8.983 14.5116 8.118 14.5496 6.867ZM16.0886 10.638H14.3186L14.3576 9.753C13.8186 10.465 13.1076 10.773 12.1256 10.773C10.9716 10.773 10.1826 9.83 10.1826 8.464C10.1826 6.387 11.5676 5.194 13.9146 5.194C14.1646 5.194 14.4726 5.214 14.7806 5.252C14.8386 4.963 14.8576 4.848 14.8576 4.694C14.8576 4.136 14.4916 3.924 13.4916 3.924C12.8956 3.924 12.2026 4.021 11.7216 4.174L11.4516 4.27L11.2606 4.328L11.5486 2.424C12.6066 2.097 13.3186 1.962 14.0886 1.962C15.9156 1.962 16.8766 2.828 16.8766 4.444C16.8766 4.867 16.8386 5.174 16.7036 6.136L16.2806 9.156L16.2036 9.696L16.1466 10.119L16.1076 10.426L16.0876 10.638H16.0886ZM49.4436 6.867C49.2326 6.848 49.1166 6.829 48.9636 6.829C47.7516 6.829 47.1356 7.272 47.1356 8.118C47.1356 8.638 47.4436 8.983 47.9056 8.983C48.7706 8.983 49.4056 8.118 49.4436 6.867ZM50.9836 10.638H49.2136L49.2516 9.753C48.7136 10.465 48.0016 10.773 47.0206 10.773C45.8666 10.773 45.0776 9.83 45.0776 8.464C45.0776 6.387 46.4626 5.194 48.8096 5.194C49.0396 5.194 49.3666 5.214 49.6746 5.252C49.7326 4.963 49.7516 4.848 49.7516 4.694C49.7516 4.136 49.3866 3.924 48.3866 3.924C47.7896 3.924 47.0966 4.021 46.6166 4.174L46.3086 4.251L46.1166 4.309L46.4046 2.405C47.4626 2.078 48.1746 1.943 48.9446 1.943C50.7716 1.943 51.7336 2.809 51.7336 4.425C51.7336 4.848 51.6946 5.155 51.5606 6.117L51.1176 9.118L51.0596 9.657L51.0026 10.08L50.9636 10.369L50.9836 10.638ZM56.9266 2.097C56.8696 2.077 56.7926 2.077 56.7156 2.077C56.0226 2.077 55.6196 2.443 54.9656 3.463L55.1576 2.173H53.2336L51.9256 10.657H54.0606C54.8306 5.463 55.0226 4.578 56.0426 4.578H56.1966C56.3886 3.559 56.6576 2.808 57.0036 2.116L56.9266 2.097ZM48.0016 18.89C48.0016 20.814 47.4056 21.949 46.4626 21.949C45.7706 21.968 45.3666 21.199 45.3666 20.064C45.3666 18.717 45.9816 17.178 46.9436 17.178C47.7316 17.178 48.0016 18.005 48.0016 18.89ZM50.0986 18.91C50.0986 16.774 49.0396 15.1 47.0586 15.1C44.7696 15.1 43.2886 17.12 43.2886 20.102C43.2886 22.237 44.1736 23.988 46.3286 23.988C48.5016 23.988 50.0986 22.449 50.0986 18.909V18.91ZM43.9616 13.62L43.6346 15.89C42.9226 15.485 42.4226 15.331 41.8646 15.331C40.3846 15.331 39.3446 16.947 39.3446 19.236C39.3446 20.814 40.0376 21.776 41.1916 21.776C41.6916 21.776 42.2306 21.603 42.8846 21.237L42.5386 23.622C41.8076 23.853 41.3266 23.93 40.7686 23.93C38.6336 23.93 37.2866 22.199 37.2866 19.429C37.2866 15.697 39.1336 13.081 41.7686 13.081C42.1146 13.081 42.4036 13.119 42.6536 13.196L43.4616 13.427C43.7316 13.504 43.7886 13.523 43.9616 13.619V13.62ZM30.8236 15.158C30.7656 15.139 30.6886 15.139 30.6116 15.139C29.9576 15.139 29.5916 15.505 28.9766 16.524L29.1696 15.235H27.3796L26.1676 23.718H28.1496C28.8616 18.525 29.0536 17.64 29.9966 17.64C30.0536 17.64 30.0536 17.64 30.1506 17.66C30.3226 16.64 30.5736 15.89 30.9006 15.197L30.8236 15.158ZM56.7536 23.642H54.8686L54.9646 22.814C54.4266 23.468 53.8496 23.757 53.1186 23.757C51.6756 23.757 50.7136 22.353 50.7136 20.237C50.7136 17.409 52.1946 15.024 53.9456 15.024C54.7146 15.024 55.3116 15.389 55.8496 16.197L56.2926 13.215H58.2546L56.7546 23.642H56.7536ZM53.8116 21.64C54.7546 21.64 55.3896 20.467 55.3896 18.774C55.3896 17.697 55.0236 17.12 54.3316 17.12C53.4276 17.12 52.7916 18.293 52.7916 19.966C52.7916 21.082 53.1386 21.64 53.8116 21.64ZM12.2026 23.603C11.5296 23.833 10.8756 23.949 10.1636 23.949C7.9516 23.949 6.7976 22.641 6.7976 20.14C6.7976 17.236 8.2786 15.081 10.2596 15.081C11.8946 15.081 12.9336 16.274 12.9336 18.179C12.9336 18.794 12.8566 19.409 12.6836 20.275H8.7406C8.7206 20.41 8.7206 20.468 8.7206 20.545C8.7206 21.525 9.3176 22.025 10.4716 22.025C11.1826 22.025 11.8176 21.853 12.5296 21.487L12.2026 23.603ZM11.0866 18.543C11.0866 18.371 11.1066 18.217 11.1066 18.121C11.1066 17.428 10.7596 17.024 10.1636 17.024C9.5286 17.024 9.0866 17.563 8.8936 18.544H11.0866V18.543ZM35.8246 23.603C35.1516 23.833 34.4976 23.949 33.7856 23.949C31.5546 23.949 30.4006 22.641 30.4006 20.14C30.4006 17.236 31.8806 15.081 33.8626 15.081C35.4976 15.081 36.5556 16.274 36.5556 18.179C36.5556 18.794 36.4786 19.409 36.3056 20.275H32.3626C32.3426 20.41 32.3426 20.468 32.3426 20.545C32.3426 21.525 32.9396 22.025 34.0936 22.025C34.8056 22.025 35.4406 21.853 36.1516 21.487L35.8246 23.603ZM34.7096 18.543C34.7286 18.371 34.7286 18.217 34.7286 18.121C34.7286 17.428 34.3816 17.024 33.7856 17.024C33.1506 17.024 32.7086 17.563 32.5156 18.544H34.7096V18.543ZM63.5256 23.603C62.8326 23.833 62.1786 23.949 61.4856 23.949C59.2736 23.949 58.1006 22.641 58.1006 20.14C58.1006 17.236 59.5816 15.081 61.5826 15.081C63.2176 15.081 64.2566 16.274 64.2566 18.179C64.2566 18.794 64.1796 19.409 64.0066 20.275H60.0616C60.0416 20.41 60.0416 20.468 60.0416 20.545C60.0416 21.525 60.6386 22.025 61.7926 22.025C62.5046 22.025 63.1396 21.853 63.8516 21.487L63.5246 23.603H63.5256ZM62.4096 18.543C62.4096 18.371 62.4296 18.217 62.4296 18.121C62.4296 17.428 62.0826 17.024 61.4856 17.024C60.8506 17.024 60.4086 17.563 60.2156 18.544H62.4096V18.543ZM6.3166 15.543C5.9316 15.273 5.3936 15.063 4.6626 15.063C3.8546 15.063 3.2196 15.235 3.2196 16.081C3.2196 17.582 6.1436 17.024 6.1436 20.256C6.1436 23.199 4.2196 23.968 2.4696 23.968C1.6996 23.968 0.795602 23.718 0.141602 23.41L0.621602 21.256C1.0266 21.622 1.8156 21.872 2.4886 21.872C3.1236 21.872 4.0846 21.699 4.0846 20.602C4.0846 18.89 1.1616 19.525 1.1616 16.524C1.1616 13.774 2.8736 12.965 4.5276 12.965C5.4506 12.965 6.3356 13.1 6.8356 13.446L6.3156 15.543H6.3166ZM18.0116 23.603C17.6076 23.795 17.0506 23.93 16.2416 23.93C14.5116 23.93 13.4336 22.199 13.4336 20.083C13.4336 17.313 14.9916 15.12 17.2806 15.12C17.7806 15.12 18.5506 15.332 19.1466 15.678L18.7046 17.698C18.2816 17.409 17.8386 17.236 17.3776 17.236C16.3186 17.236 15.5496 18.217 15.5496 19.948C15.5496 20.948 16.1076 21.776 16.9736 21.776C17.4936 21.776 17.8576 21.66 18.3006 21.41L18.0126 23.603H18.0116ZM25.4376 21.468C25.3416 22.198 25.2446 22.911 25.1876 23.661H23.2816L23.4356 22.295H23.4156C22.8206 23.218 22.2046 23.853 21.1076 23.853C19.9156 23.853 19.2616 22.583 19.2616 20.949C19.2616 20.371 19.2996 20.064 19.4156 19.179L19.9546 15.255H22.0886L21.5126 19.198C21.4546 19.621 21.3776 20.044 21.3776 20.487C21.3776 20.987 21.6076 21.487 22.1856 21.449C23.0516 21.449 23.5706 20.391 23.7246 19.14L24.3206 15.255H26.3786L25.4366 21.468H25.4376ZM65.5066 23.565H65.1796V22.16H64.7176V21.853H65.9676V22.16H65.5066V23.565ZM67.6416 23.565H67.3336V22.141L67.0456 23.565H66.7376L66.4496 22.141V23.565H66.1416V21.853H66.6216L66.8916 23.199H66.9106L67.1796 21.853H67.6416V23.565Z" fill="#D3A562"/>
</svg>
