<svg width="68" height="40" viewBox="0 0 68 40" fill="none" xmlns="http://www.w3.org/2000/svg">
<g clip-path="url(#clip0_6500_384)">
<path fill-rule="evenodd" clip-rule="evenodd" d="M58.3546 26.2829C58.2616 27.0279 58.1396 27.7429 57.9886 28.4279C57.3526 28.2209 56.6186 27.8879 55.5816 27.9579C54.9626 27.9979 54.2316 28.2359 54.2216 28.7939C54.2096 29.4119 55.2256 29.7799 55.7916 30.0499C56.8096 30.5379 57.9036 31.1869 57.9886 32.5099C58.0536 33.5249 57.5816 34.4099 57.0466 34.9159C55.6206 36.2639 52.4566 36.4059 50.2966 35.5439C50.4316 34.8239 50.5536 34.0919 50.6636 33.3459C51.4996 33.7019 52.6476 34.1819 53.9076 34.0259C54.4806 33.9559 55.1836 33.6209 55.1626 33.0329C55.1376 32.3149 53.7976 31.8869 53.1226 31.5149C52.3376 31.0829 51.4446 30.3629 51.3956 29.2649C51.3636 28.5339 51.6476 27.8489 52.0236 27.3819C53.1386 25.9959 56.0036 25.5039 58.3546 26.2829ZM32.7116 12.2709H35.5956L33.8196 23.4649H30.9346L32.7116 12.2709ZM25.2476 14.4959L24.8016 17.3049H25.6356C26.4456 17.3049 27.2136 16.6729 27.3416 15.8999C27.4686 15.1279 26.9086 14.4959 26.0986 14.4959H25.2476ZM22.7156 12.2699H27.1326C29.9426 12.2699 30.6726 13.8879 30.3656 15.8209C30.1096 17.4349 28.9496 18.5129 27.4436 18.8959L30.2416 23.4649H26.6196L24.5216 19.0689L23.8246 23.4649H20.9386L22.7156 12.2699ZM45.8856 12.2709H48.7706L46.9946 23.4649H44.1096L45.8856 12.2709ZM50.9626 12.2699H57.2966L56.9096 14.7039H53.4616L53.1576 16.6169H56.4366L56.0506 19.0509H52.7716L52.4576 21.0309H55.9066L55.5196 23.4649H49.1866L50.9626 12.2699ZM14.6666 12.2699H20.9996L20.6136 14.7039H17.1656L16.8616 16.6169H20.1396L19.7536 19.0509H16.4756L16.1616 21.0309H19.6096L19.2236 23.4649H12.8896L14.6666 12.2699ZM37.7806 12.2699H44.1856L43.7996 14.7039H40.2796L39.9706 16.6169H43.1736L42.7866 19.0509H39.5846L38.8846 23.4649H36.0036L37.7806 12.2699ZM61.4916 14.7039H62.0886C64.2936 14.7039 65.1556 16.2589 64.9186 17.7599C64.5986 19.7729 63.1516 21.0299 61.2596 21.0299H60.4886L61.4926 14.7039H61.4916ZM58.9936 12.2699H62.7536C67.2326 12.2699 68.2536 15.6579 67.9026 17.8699C67.4006 21.0299 64.5826 23.4649 60.9776 23.4649H57.2176L58.9936 12.2699ZM1.1416 10.7449H6.4786L7.1126 18.8779C10.6416 12.7659 14.2316 6.88491 17.8476 1.10791H19.5876C15.7606 8.48791 11.9816 15.9169 8.3226 23.4649H4.4046L3.4496 14.4949C3.2116 12.2699 2.7616 11.3259 1.1416 11.0859V10.7459" fill="#D3A562"/>
<path fill-rule="evenodd" clip-rule="evenodd" d="M3.16262 6.11985L7.71262 8.04885L8.10762 13.1159H8.44462L12.5746 6.12285V5.77185H3.16162L3.16262 6.11985ZM21.8686 26.0969H23.7356L23.1056 30.5089C23.6396 29.9939 24.2916 29.6759 25.0206 29.6759C26.5186 29.6759 27.5006 31.1189 27.2366 32.9009C26.9716 34.6828 25.5596 36.1278 24.0616 36.1278C23.3226 36.1278 22.7936 35.7949 22.4316 35.2349L22.3326 35.9349H20.4656L21.8686 26.0969ZM24.1986 31.4829C24.8886 31.4829 25.3576 32.1149 25.2456 32.8949C25.1336 33.6729 24.4846 34.3049 23.7946 34.3049C23.1046 34.3049 22.6356 33.6729 22.7476 32.8949C22.8596 32.1149 23.5096 31.4829 24.1986 31.4829Z" fill="#D3A562"/>
<path fill-rule="evenodd" clip-rule="evenodd" d="M27.3966 29.8259H29.6376L30.6396 32.9529L32.5856 29.8259H34.7516L29.0686 38.9529H26.9036L29.2996 35.1049L27.3966 29.8259ZM45.8846 35.9319L47.5256 26.0939H50.2106L48.5696 35.9319H45.8846ZM43.6406 26.0739C42.7146 28.2529 41.9256 30.5679 40.9726 32.7189L40.6926 31.4279L40.6886 31.4119L40.7356 31.6419C40.5286 30.9629 40.1756 30.3219 39.7256 29.7349L39.6896 29.6899C39.6116 29.5879 39.5276 29.4899 39.4436 29.3919C39.3916 29.3319 39.3396 29.2729 39.2856 29.2139C38.6356 28.5029 37.8476 27.8889 37.0156 27.4029L39.4026 35.9099H42.2806C43.6346 32.5899 45.0966 29.3789 46.4656 26.0739H43.6416" fill="#D3A562"/>
<path fill-rule="evenodd" clip-rule="evenodd" d="M38.5726 26.0749H34.1826V26.2889C36.7106 26.7819 39.9006 28.9019 40.7356 31.6419L39.7936 27.0599C39.6636 26.3539 39.1726 26.0749 38.5736 26.0749H38.5726ZM63.3316 28.7999L61.9646 32.4569H64.1746L63.3316 28.7989V28.7999ZM67.4066 35.9629H64.9466C64.7876 35.4929 64.7436 34.9099 64.5806 34.4449H61.2326L60.6046 35.9629H57.7786L61.4416 27.5389C61.6036 27.1689 61.8946 26.6649 62.0166 26.4389C62.2036 26.0989 62.9226 26.0739 63.2286 26.0739H65.2606L67.4066 35.9629Z" fill="#D3A562"/>
</g>
<defs>
<clipPath id="clip0_6500_384">
<rect width="67" height="39" fill="white" transform="translate(0.965576 0.5)"/>
</clipPath>
</defs>
</svg>
